<svg width="1151" height="323" viewBox="0 0 1151 323" fill="none" xmlns="http://www.w3.org/2000/svg">
<rect width="1151" height="323" rx="10" fill="#009247"/>
<path d="M590 257C590 273.491 576.423 287 559.5 287C542.577 287 529 273.491 529 257C529 240.509 542.577 227 559.5 227C576.423 227 590 240.509 590 257Z" stroke="#54B435" stroke-opacity="0.5" stroke-width="12"/>
<path d="M729 139.5C729 147.931 721.967 155 713 155C704.033 155 697 147.931 697 139.5C697 131.069 704.033 124 713 124C721.967 124 729 131.069 729 139.5Z" stroke="#54B435" stroke-opacity="0.5" stroke-width="12"/>
<circle cx="881.5" cy="37.5" r="15.5" stroke="#54B435" stroke-opacity="0.5" stroke-width="12"/>
<circle cx="86" cy="239" r="64" stroke="white" stroke-opacity="0.05" stroke-width="24"/>
<path d="M122 76.5C122 89.384 111.35 100 98 100C84.6497 100 74 89.384 74 76.5C74 63.616 84.6497 53 98 53C111.35 53 122 63.616 122 76.5Z" stroke="#54B435" stroke-opacity="0.5" stroke-width="12"/>
<path d="M604.5 81.5C604.5 115.27 577.333 142.5 544 142.5C510.667 142.5 483.5 115.27 483.5 81.5C483.5 47.73 510.667 20.5 544 20.5C577.333 20.5 604.5 47.73 604.5 81.5Z" stroke="white" stroke-opacity="0.05" stroke-width="25"/>
<path d="M1138.5 176C1138.5 230.9 1093.78 275.5 1038.5 275.5C983.219 275.5 938.5 230.9 938.5 176C938.5 121.1 983.219 76.5 1038.5 76.5C1093.78 76.5 1138.5 121.1 1138.5 176Z" stroke="white" stroke-opacity="0.05" stroke-width="25"/>
</svg>
